<svg xmlns="http://www.w3.org/2000/svg" width="960" height="540" viewBox="0 0 960 540">
  <rect width="960" height="540" fill="#f8fafc"/>
  <rect x="0" y="0" width="240" height="540" fill="#0f172a"/>
  <text x="20" y="36" fill="#fff" font-family="system-ui" font-size="16" font-weight="700">CommerceIQ</text>
  <text x="20" y="56" fill="#94a3b8" font-family="system-ui" font-size="11">Retail analytics</text>
  <text x="20" y="100" fill="#64748b" font-family="system-ui" font-size="10">DEMO SCENARIOS</text>
  <rect x="16" y="112" width="208" height="28" rx="6" fill="#1e40af"/>
  <text x="28" y="130" fill="#fff" font-family="system-ui" font-size="11">Last 90 days</text>
  <rect x="16" y="148" width="208" height="28" rx="6" fill="#334155"/>
  <text x="28" y="166" fill="#e2e8f0" font-family="system-ui" font-size="11">Electronics focus</text>
  <rect x="256" y="16" width="688" height="64" fill="url(#g)" rx="12"/>
  <defs><linearGradient id="g" x1="0" y1="0" x2="1" y2="0"><stop offset="0%" stop-color="#0ea5e9"/><stop offset="100%" stop-color="#6366f1"/></linearGradient></defs>
  <text x="280" y="52" fill="#fff" font-family="system-ui" font-size="20" font-weight="700">Executive insights</text>
  <rect x="256" y="96" width="130" height="52" rx="8" fill="#fff" stroke="#e2e8f0"/>
  <text x="272" y="118" fill="#64748b" font-family="system-ui" font-size="10">Revenue</text>
  <text x="272" y="138" fill="#0f172a" font-family="system-ui" font-size="18" font-weight="700">$1.2M</text>
  <text x="340" y="138" fill="#16a34a" font-family="system-ui" font-size="11">+8.4%</text>
  <rect x="400" y="96" width="130" height="52" rx="8" fill="#fff" stroke="#e2e8f0"/>
  <text x="416" y="118" fill="#64748b" font-family="system-ui" font-size="10">AOV</text>
  <text x="416" y="138" fill="#0f172a" font-family="system-ui" font-size="18" font-weight="700">$842</text>
  <rect x="256" y="168" width="688" height="72" rx="10" fill="#eff6ff" stroke="#93c5fd"/>
  <text x="276" y="200" fill="#1e40af" font-family="system-ui" font-size="13">=ť Revenue up ť Electronics leads ť 23% At Risk</text>
  <text x="276" y="222" fill="#475569" font-family="system-ui" font-size="12">Auto executive brief ť RFM export ť Forecast MAPE</text>
  <rect x="256" y="260" width="330" height="260" rx="10" fill="#fff" stroke="#e2e8f0"/>
  <text x="276" y="290" fill="#64748b" font-family="system-ui" font-size="11">RFM SEGMENTS</text>
  <circle cx="420" cy="390" r="80" fill="none" stroke="#6366f1" stroke-width="24" stroke-dasharray="120 380"/>
  <rect x="610" y="260" width="334" height="260" rx="10" fill="#fff" stroke="#e2e8f0"/>
  <text x="630" y="290" fill="#64748b" font-family="system-ui" font-size="11">90-DAY FORECAST</text>
  <path d="M630 450 L750 380 L850 400 L920 320" fill="none" stroke="#0ea5e9" stroke-width="3"/>
</svg>
